<svg width="20" height="20" viewBox="0 0 20 20" fill="none" xmlns="http://www.w3.org/2000/svg">
<path d="M3 1L17 1C17.5304 1 18.0391 1.21071 18.4142 1.58579C18.7893 1.96086 19 2.46957 19 3L19 17C19 17.5304 18.7893 18.0391 18.4142 18.4142C18.0391 18.7893 17.5304 19 17 19L3 19C2.46957 19 1.96086 18.7893 1.58579 18.4142C1.21071 18.0391 1 17.5304 1 17L1 3C1 2.46957 1.21071 1.96086 1.58579 1.58579C1.96086 1.21071 2.46957 1 3 1Z" stroke="#0561FC" stroke-width="2" stroke-linecap="round" stroke-linejoin="round"/>
<path d="M12.5 1L12.5 19" stroke="#0561FC" stroke-width="2" stroke-linecap="round" stroke-linejoin="round"/>
</svg>
