<svg width="48" height="48" viewBox="0 0 48 48" fill="none" xmlns="http://www.w3.org/2000/svg">
<path d="M24.0001 18C24.4395 18.2343 24.7732 18.5446 25.131 18.8848C25.1925 18.9428 25.254 19.0008 25.3174 19.0606C26.1315 19.8319 26.9325 20.611 27.6564 21.4688C27.7309 21.5537 27.8055 21.6387 27.8823 21.7262C30.7751 25.0424 33.0073 29.0842 33.6564 33.4688C33.6688 33.5488 33.6813 33.6288 33.6941 33.7112C34.0388 36.4031 33.4399 39.0579 31.8517 41.2676C30.1954 43.3776 27.8922 44.7386 25.2189 45.0938C24.8356 45.1201 24.4545 45.1251 24.0704 45.123C23.9678 45.1227 23.8652 45.1223 23.7594 45.1219C22.9637 45.1108 22.2376 45.0296 21.4689 44.8125C21.3293 44.775 21.3293 44.775 21.1869 44.7367C18.6516 43.9761 16.6685 42.2254 15.4103 39.9258C13.8415 36.9598 14.1416 33.5291 15.0803 30.4109C15.3989 29.4206 15.8474 28.4909 16.3126 27.5625C16.3532 27.4805 16.3937 27.3985 16.4355 27.3141C16.9484 26.2824 17.5188 25.3128 18.1876 24.375C18.2369 24.3054 18.2863 24.2358 18.3371 24.1641C19.0786 23.1225 19.8624 22.1364 20.7189 21.1875C20.8053 21.0906 20.8917 20.9937 20.9781 20.8967C21.9146 19.859 22.8746 18.8351 24.0001 18Z" fill="#56B6EA"/>
<path d="M35.9898 2.93037C36.2172 3.01045 36.3347 3.10727 36.5087 3.27319C36.568 3.32914 36.6273 3.38509 36.6883 3.44274C36.7493 3.5016 36.8103 3.56045 36.8731 3.62109C36.9629 3.7061 36.9629 3.7061 37.0546 3.79284C37.7025 4.40861 38.3318 5.03329 38.9063 5.71874C38.9659 5.78976 38.9659 5.78976 39.0268 5.86221C41.6944 9.05925 43.7857 12.9728 43.5001 17.25C43.4053 18.149 43.1427 18.9704 42.7501 19.7812C42.7075 19.8701 42.665 19.9589 42.6211 20.0504C42.3414 20.5984 42.0183 21.0377 41.591 21.4805C41.4174 21.6566 41.4174 21.6566 41.3438 21.9375C40.5352 22.6909 39.6555 23.234 38.6251 23.625C38.5209 23.6656 38.4167 23.7062 38.3094 23.748C36.4342 24.3603 34.3377 24.1165 32.5899 23.2676C32.0191 22.9762 31.5165 22.6389 31.0313 22.2187C30.9569 22.1625 30.8824 22.1064 30.8057 22.0485C29.4175 20.8797 28.6186 19.0188 28.4063 17.25C28.1281 12.785 30.3564 8.81183 33.1876 5.53124C33.9234 4.70596 34.6838 3.88548 35.502 3.14062C35.578 3.06956 35.578 3.06956 35.6555 2.99706C35.8126 2.90624 35.8126 2.90624 35.9898 2.93037Z" fill="#A9E0F9"/>
<path d="M11.9898 2.93037C12.2172 3.01045 12.3347 3.10727 12.5087 3.27319C12.568 3.32914 12.6273 3.38509 12.6883 3.44274C12.7493 3.5016 12.8103 3.56045 12.8731 3.62109C12.9629 3.7061 12.9629 3.7061 13.0546 3.79284C13.7025 4.40861 14.3318 5.03329 14.9063 5.71874C14.9659 5.78976 14.9659 5.78976 15.0268 5.86221C17.6944 9.05925 19.7857 12.9728 19.5001 17.25C19.4053 18.149 19.1427 18.9704 18.7501 19.7812C18.7075 19.8701 18.665 19.9589 18.6211 20.0504C18.3414 20.5984 18.0183 21.0377 17.591 21.4805C17.4174 21.6566 17.4174 21.6566 17.3438 21.9375C16.5352 22.6909 15.6555 23.234 14.6251 23.625C14.5209 23.6656 14.4167 23.7062 14.3094 23.748C12.4342 24.3603 10.3377 24.1165 8.5899 23.2676C8.01915 22.9762 7.51653 22.6389 7.03131 22.2187C6.95686 22.1625 6.88242 22.1064 6.80572 22.0485C5.41747 20.8797 4.61863 19.0188 4.40631 17.25C4.12812 12.785 6.35641 8.81183 9.18756 5.53124C9.92345 4.70596 10.6838 3.88548 11.502 3.14062C11.578 3.06956 11.578 3.06956 11.6555 2.99706C11.8126 2.90624 11.8126 2.90624 11.9898 2.93037Z" fill="#A9E0F9"/>
<path d="M15.5626 29.1562C15.5936 29.1562 15.6245 29.1562 15.6564 29.1562C15.643 29.3301 15.6292 29.5039 15.6154 29.6777C15.6077 29.7745 15.6001 29.8713 15.5923 29.9711C15.5725 30.1777 15.5469 30.3839 15.5155 30.5891C15.2885 32.2852 15.362 34.1042 15.9376 35.7188C15.9627 35.79 15.9878 35.8612 16.0137 35.9346C16.4735 37.2054 17.1356 38.2435 18.0001 39.2813C18.0451 39.3389 18.09 39.3965 18.1364 39.4559C19.6992 41.4096 22.5223 42.7071 24.9655 43.0078C26.7572 43.1288 28.5066 43.0522 30.2038 42.4202C30.3751 42.375 30.3751 42.375 30.5626 42.4688C30.086 43.095 29.5576 43.4902 28.8751 43.875C28.7881 43.9243 28.7011 43.9736 28.6114 44.0244C27.1994 44.7765 25.6652 45.1314 24.0704 45.123C23.9678 45.1227 23.8652 45.1223 23.7595 45.1219C22.9637 45.1108 22.2376 45.0296 21.4689 44.8125C21.3758 44.7875 21.2828 44.7625 21.1869 44.7367C18.6516 43.9761 16.6685 42.2254 15.4103 39.9258C13.7595 36.8048 14.2163 33.3078 15.2012 30.0562C15.3033 29.7458 15.4255 29.4527 15.5626 29.1562Z" fill="#4892D4"/>
<path d="M29.1562 12.8438C29.1871 12.8438 29.2181 12.8438 29.2499 12.8438C29.2503 12.9054 29.2507 12.9671 29.2511 13.0306C29.2661 14.4089 29.3729 15.659 29.8124 16.9688C29.8576 17.1082 29.8576 17.1082 29.9036 17.2504C30.419 18.676 31.4931 19.946 32.7187 20.8125C32.8369 20.8975 32.8369 20.8975 32.9575 20.9843C34.935 22.327 37.3394 22.6868 39.66 22.2521C40.2371 22.1329 40.7928 21.9591 41.3437 21.75C41.3437 21.8119 41.3437 21.8738 41.3437 21.9375C40.5339 22.6899 39.6556 23.2339 38.6249 23.625C38.5208 23.6656 38.4166 23.7062 38.3093 23.748C36.4341 24.3603 34.3376 24.1165 32.5898 23.2676C32.019 22.9762 31.5164 22.6389 31.0312 22.2188C30.9567 22.1626 30.8823 22.1064 30.8056 22.0485C29.419 20.8811 28.6155 19.0179 28.4062 17.25C28.3914 16.9667 28.3884 16.6841 28.3886 16.4004C28.3886 16.3231 28.3885 16.2457 28.3884 16.1661C28.3942 15.4836 28.4709 14.8282 28.5937 14.1563C28.6556 14.1563 28.7174 14.1563 28.7812 14.1563C28.7909 14.0441 28.8005 13.932 28.8105 13.8164C28.8551 13.4473 28.9697 13.168 29.1562 12.8438Z" fill="#59B8EB"/>
<path d="M5.15619 12.8438C5.18713 12.8438 5.21806 12.8438 5.24994 12.8438C5.25032 12.9054 5.25071 12.9671 5.25111 13.0306C5.26609 14.4089 5.37291 15.659 5.81244 16.9688C5.85758 17.1082 5.85758 17.1082 5.90363 17.2504C6.41899 18.676 7.49312 19.946 8.71869 20.8125C8.83688 20.8975 8.83688 20.8975 8.95746 20.9843C10.935 22.327 13.3394 22.6868 15.66 22.2521C16.2371 22.1329 16.7928 21.9591 17.3437 21.75C17.3437 21.8119 17.3437 21.8738 17.3437 21.9375C16.5339 22.6899 15.6556 23.2339 14.6249 23.625C14.5208 23.6656 14.4166 23.7062 14.3093 23.748C12.4341 24.3603 10.3376 24.1165 8.58978 23.2676C8.01903 22.9762 7.51641 22.6389 7.03119 22.2188C6.95675 22.1626 6.8823 22.1064 6.8056 22.0485C5.41899 20.8811 4.61547 19.0179 4.40619 17.25C4.39137 16.9667 4.38838 16.6841 4.38861 16.4004C4.38855 16.3231 4.38849 16.2457 4.38843 16.1661C4.39424 15.4836 4.47092 14.8282 4.59369 14.1563C4.65556 14.1563 4.71744 14.1563 4.78119 14.1563C4.79086 14.0441 4.80052 13.932 4.81049 13.8164C4.85515 13.4473 4.96975 13.168 5.15619 12.8438Z" fill="#59B8EB"/>
<path d="M29.3438 12.2812C29.3438 12.6216 29.3438 12.9619 29.3438 13.3125C29.2819 13.1887 29.22 13.065 29.1562 12.9375C29.0325 13.3397 28.9088 13.7419 28.7812 14.1562C28.7503 14.1562 28.7194 14.1562 28.6875 14.1562C28.737 13.5418 28.8247 12.9484 29.0625 12.375C29.25 12.2812 29.25 12.2812 29.3438 12.2812Z" fill="#86CFF3"/>
<path d="M5.34375 12.2812C5.34375 12.6216 5.34375 12.9619 5.34375 13.3125C5.28187 13.1887 5.22 13.065 5.15625 12.9375C5.0325 13.3397 4.90875 13.7419 4.78125 14.1562C4.75031 14.1562 4.71938 14.1562 4.6875 14.1562C4.73705 13.5418 4.82471 12.9484 5.0625 12.375C5.25 12.2812 5.25 12.2812 5.34375 12.2812Z" fill="#86CFF3"/>
<path d="M29.3438 11.625C29.4056 11.625 29.4675 11.625 29.5312 11.625C29.5003 11.8725 29.4694 12.12 29.4375 12.375C29.3447 12.375 29.2519 12.375 29.1562 12.375C29.2383 11.8359 29.2383 11.8359 29.3438 11.625Z" fill="#8ED2F4"/>
<path d="M5.34375 11.625C5.40563 11.625 5.4675 11.625 5.53125 11.625C5.50031 11.8725 5.46938 12.12 5.4375 12.375C5.34469 12.375 5.25187 12.375 5.15625 12.375C5.23828 11.8359 5.23828 11.8359 5.34375 11.625Z" fill="#8ED2F4"/>
</svg>
