<svg width="48" height="48" viewBox="0 0 48 48" fill="none" xmlns="http://www.w3.org/2000/svg">
<g clip-path="url(#clip0_115_17)">
<path d="M30.0644 -0.0468845C30.2111 -0.046182 30.2111 -0.046182 30.3608 -0.0454654C32.0808 -0.00704501 33.3749 0.678904 34.5937 1.87499C34.6536 1.93264 34.7135 1.99028 34.7753 2.04967C35.806 3.12414 36.2359 4.59376 36.2172 6.05033C36.217 6.15423 36.2169 6.25814 36.2167 6.36519C36.2158 6.7107 36.2129 7.05616 36.2101 7.40166C36.2091 7.65045 36.2082 7.89923 36.2075 8.14801C36.2058 8.68248 36.2032 9.21693 36.2001 9.75139C36.1953 10.5969 36.1938 11.4423 36.1928 12.2878C36.1925 12.5776 36.1921 12.8675 36.1917 13.1573C36.1916 13.2297 36.1915 13.3021 36.1914 13.3767C36.1904 14.1993 36.1888 15.022 36.1869 15.8446C36.1867 15.9197 36.1865 15.9949 36.1863 16.0723C36.1834 17.2904 36.1774 18.5084 36.1704 19.7265C36.1633 20.9793 36.1605 22.232 36.1615 23.4848C36.162 24.2564 36.159 25.0279 36.1514 25.7995C36.1466 26.3284 36.1458 26.8572 36.1483 27.3861C36.1496 27.6909 36.1484 27.9953 36.1436 28.3001C36.065 29.5907 36.065 29.5907 36.5297 30.742C36.7931 31.008 37.0906 31.2056 37.4062 31.4062C39.0503 33.0251 39.9324 35.4485 39.9648 37.7186C39.9709 38.9103 39.9454 40.0173 39.5624 41.1562C39.5295 41.2597 39.4967 41.3631 39.4628 41.4697C38.5706 44.0223 36.6971 45.9983 34.2831 47.1797C31.8229 48.2634 28.9556 48.3656 26.4425 47.4003C23.9496 46.3838 22.027 44.5151 20.9387 42.0476C20.11 39.8904 19.8794 37.373 20.6249 35.1562C20.6578 35.0528 20.6906 34.9493 20.7245 34.8428C21.1599 33.5972 21.9937 31.767 23.198 31.0898C23.5893 30.8382 23.85 30.6077 23.96 30.1517C24.0498 29.4283 24.0241 28.698 24.0137 27.9708C24.0136 27.7228 24.0139 27.4748 24.0147 27.2268C24.0155 26.6933 24.0131 26.16 24.0083 25.6265C24.0015 24.8536 24.0003 24.0808 24.0006 23.3078C24.0009 22.0515 23.9974 20.7953 23.9912 19.539C23.9906 19.4264 23.9906 19.4263 23.9901 19.3114C23.9897 19.2362 23.9893 19.161 23.9889 19.0835C23.9836 18.0191 23.9793 16.9547 23.976 15.8903C23.9758 15.8155 23.9755 15.7406 23.9753 15.6635C23.9715 14.4126 23.9696 13.1616 23.9687 11.9107C23.968 11.1405 23.9654 10.3705 23.9602 9.60033C23.9568 9.07173 23.9549 8.54314 23.9543 8.01453C23.9539 7.71033 23.9524 7.4062 23.9494 7.10201C23.929 5.00925 24.1756 3.38828 25.6621 1.81054C25.7675 1.70322 25.7675 1.70322 25.8749 1.59374C25.9325 1.5338 25.9902 1.47386 26.0496 1.4121C27.1227 0.382673 28.6076 -0.0561359 30.0644 -0.0468845Z" fill="#E2DFF4"/>
<path d="M30.0937 2.8125C31.1257 2.8125 31.7738 3.09173 32.5158 3.80896C33.2421 4.60475 33.4034 5.35289 33.3941 6.40939C33.3939 6.51723 33.3937 6.62507 33.3935 6.73619C33.3928 7.03472 33.3913 7.33324 33.3895 7.63177C33.3877 7.95406 33.387 8.27635 33.3863 8.59863C33.385 9.08462 33.3835 9.57061 33.3815 10.0566C33.3776 11.0117 33.3761 11.9668 33.3756 12.922C33.3755 13.0724 33.3754 13.2229 33.3753 13.3734C33.3751 13.6014 33.375 13.8294 33.3748 14.0574C33.3743 14.9167 33.3735 15.7759 33.3725 16.6352C33.3724 16.7137 33.3723 16.7922 33.3722 16.8731C33.3705 18.1456 33.3658 19.4181 33.36 20.6906C33.3543 21.9978 33.3524 23.305 33.354 24.6122C33.3549 25.4181 33.3526 26.2239 33.3463 27.0298C33.3422 27.5822 33.3419 28.1346 33.3446 28.6871C33.346 29.0057 33.3458 29.3241 33.341 29.6426C33.2496 30.9431 33.2496 30.9431 33.6896 32.109C33.9514 32.3266 34.197 32.4724 34.4999 32.625C35.893 33.7211 36.9062 35.3485 37.1249 37.125C37.2736 39.1689 36.8733 41.0242 35.5839 42.6562C34.3713 44.0359 32.9195 44.8286 31.1249 45.1875C30.7846 45.1875 30.4443 45.1875 30.0937 45.1875C30.0937 44.2594 30.0937 43.3312 30.0937 42.375C29.8771 42.375 29.6605 42.375 29.4374 42.375C28.6417 42.2543 28.015 41.9133 27.3749 41.4375C27.3141 41.3927 27.2533 41.3478 27.1907 41.3016C26.7817 40.9483 26.551 40.506 26.3085 40.0312C26.276 39.9678 26.2436 39.9044 26.2101 39.839C25.7647 38.9189 25.7275 37.8007 26.0214 36.8262C26.4535 35.6795 27.2997 34.7499 28.4062 34.2188C28.499 34.2188 28.5918 34.2188 28.6874 34.2188C28.6871 34.1353 28.6867 34.0518 28.6864 33.9658C28.6781 31.9346 28.6719 29.9033 28.668 27.8721C28.6661 26.8898 28.6634 25.9075 28.6591 24.9252C28.6554 24.069 28.653 23.2128 28.6521 22.3566C28.6516 21.9033 28.6505 21.45 28.6478 20.9966C28.6452 20.5698 28.6444 20.143 28.645 19.7162C28.6449 19.5597 28.6442 19.4032 28.6427 19.2467C28.6408 19.0326 28.6413 18.8186 28.6423 18.6045C28.642 18.4848 28.6416 18.3651 28.6413 18.2418C28.7043 17.7837 28.8732 17.4155 29.2294 17.1039C29.5499 16.94 29.7267 16.875 30.0937 16.875C30.0937 12.2344 30.0937 7.59375 30.0937 2.8125Z" fill="#E1DEF3"/>
<path d="M30.0938 0C31.4044 0 31.4044 0 31.9805 0.199219C32.0759 0.230987 32.0759 0.230987 32.1733 0.263397C33.1434 0.600852 33.8647 1.1595 34.5938 1.875C34.6537 1.93265 34.7136 1.99029 34.7754 2.04968C35.8061 3.12415 36.236 4.59377 36.2173 6.05034C36.2171 6.15424 36.217 6.25814 36.2168 6.36519C36.2159 6.71071 36.213 7.05617 36.2102 7.40167C36.2092 7.65046 36.2083 7.89924 36.2076 8.14802C36.2059 8.68249 36.2033 9.21694 36.2002 9.7514C36.1954 10.5969 36.1939 11.4423 36.1929 12.2878C36.1926 12.5776 36.1922 12.8675 36.1918 13.1573C36.1917 13.2297 36.1916 13.3021 36.1915 13.3767C36.1905 14.1993 36.1889 15.022 36.187 15.8446C36.1868 15.9197 36.1866 15.9949 36.1864 16.0723C36.1835 17.2904 36.1775 18.5084 36.1705 19.7265C36.1634 20.9793 36.1606 22.232 36.1616 23.4848C36.1621 24.2564 36.1591 25.0279 36.1515 25.7995C36.1467 26.3284 36.1459 26.8572 36.1484 27.3861C36.1497 27.6909 36.1485 27.9953 36.1437 28.3001C36.0651 29.5907 36.0651 29.5907 36.5298 30.7421C36.7932 31.008 37.0907 31.2057 37.4062 31.4062C39.0504 33.0251 39.9325 35.4485 39.9649 37.7187C39.971 38.9103 39.9455 40.0174 39.5625 41.1562C39.5132 41.3114 39.5132 41.3114 39.4629 41.4697C38.5707 44.0223 36.6972 45.9983 34.2832 47.1797C32.8845 47.7958 31.6297 48 30.0938 48C30.0938 47.0719 30.0938 46.1437 30.0938 45.1875C30.3122 45.1662 30.5307 45.145 30.7559 45.123C32.6241 44.9062 34.2593 44.07 35.502 42.6504C36.8555 40.9111 37.2259 38.9319 36.9935 36.7749C36.6643 35.0447 35.5473 33.5363 34.2188 32.4375C34.15 32.3951 34.0812 32.3527 34.0103 32.309C33.4231 31.9248 33.4231 31.9248 33.2971 31.5485C33.2681 31.2643 33.2658 30.9906 33.2725 30.705C33.2717 30.5971 33.2708 30.4893 33.27 30.3781C33.2685 30.0799 33.2708 29.7819 33.2746 29.4837C33.2779 29.1617 33.2763 28.8397 33.2752 28.5176C33.2741 27.9599 33.276 27.4022 33.2799 26.8444C33.2855 26.037 33.2861 25.2296 33.2855 24.4222C33.2845 23.1107 33.2869 21.7993 33.2919 20.4879C33.2967 19.2165 33.3008 17.9451 33.3032 16.6737C33.3034 16.5955 33.3036 16.5172 33.3037 16.4366C33.3053 15.5815 33.3065 14.7264 33.307 13.8713C33.307 13.7961 33.307 13.7209 33.3071 13.6434C33.3072 13.3425 33.3073 13.0417 33.3074 12.7409C33.3076 11.8614 33.3092 10.982 33.3135 10.1026C33.3162 9.55063 33.3176 8.99869 33.318 8.44674C33.3183 8.12857 33.3195 7.81045 33.3219 7.49229C33.3244 7.14675 33.3246 6.80129 33.3242 6.45574C33.3255 6.35605 33.3268 6.25637 33.3282 6.15366C33.3222 5.13614 32.9983 4.40653 32.2954 3.67493C31.6291 3.08508 30.9824 2.97407 30.0938 2.8125C30.0938 1.88438 30.0938 0.95625 30.0938 0Z" fill="#BEBCDD"/>
<path d="M30.0937 2.8125C30.0937 7.45312 30.0937 12.0938 30.0937 16.875C29.8462 16.9678 29.5987 17.0606 29.3437 17.1562C29.0532 17.4035 28.9018 17.5444 28.7812 17.9062C28.7715 18.1238 28.7675 18.3416 28.7664 18.5594C28.7657 18.6596 28.7657 18.6596 28.765 18.7619C28.7635 18.9865 28.7628 19.2111 28.762 19.4356C28.7611 19.5964 28.7601 19.7571 28.7592 19.9179C28.7566 20.3548 28.7547 20.7918 28.7528 21.2287C28.7507 21.6852 28.7482 22.1416 28.7457 22.5981C28.741 23.4626 28.7368 24.3272 28.7327 25.1918C28.7281 26.176 28.7229 27.1602 28.7177 28.1444C28.7071 30.1692 28.6971 32.194 28.6875 34.2188C28.623 34.2503 28.5585 34.2818 28.4921 34.3143C28.3654 34.3769 28.3654 34.3769 28.236 34.4408C28.1522 34.482 28.0684 34.5232 27.9821 34.5657C27.0385 35.0609 26.421 35.9322 26.0742 36.9199C25.7432 38.1656 26.0148 39.3579 26.6144 40.4645C27.1214 41.2751 27.934 41.8989 28.8658 42.1398C29.2736 42.2334 29.6806 42.3036 30.0937 42.375C30.0937 43.3031 30.0937 44.2313 30.0937 45.1875C28.2575 45.0563 26.9035 44.697 25.5 43.5C25.4225 43.4404 25.345 43.3808 25.2652 43.3195C24.0556 42.3143 23.257 40.6417 23.0625 39.0938C22.9519 37.0565 23.3498 35.2799 24.6562 33.6562C24.698 33.5991 24.7399 33.5419 24.7829 33.483C25.1846 32.9618 25.7263 32.5857 26.2456 32.1896C26.5236 31.9843 26.5236 31.9843 26.7187 31.7812C26.7473 31.5835 26.7473 31.5835 26.7427 31.3518C26.7433 31.2608 26.7439 31.1697 26.7445 31.076C26.7442 30.9752 26.7439 30.8745 26.7436 30.7708C26.744 30.6643 26.7444 30.5579 26.7448 30.4482C26.746 30.0891 26.7458 29.7299 26.7456 29.3708C26.7461 29.1143 26.7468 28.8578 26.7476 28.6013C26.749 28.0476 26.7498 27.494 26.7502 26.9403C26.7507 26.139 26.7525 25.3377 26.7545 24.5364C26.7579 23.2353 26.7605 21.9342 26.7626 20.6331C26.7627 20.5552 26.7629 20.4773 26.763 20.397C26.7639 19.8441 26.7647 19.2912 26.7656 18.7383C26.7666 18.1077 26.7676 17.4771 26.7686 16.8464C26.7687 16.7688 26.7688 16.6911 26.769 16.6111C26.7711 15.3157 26.7739 14.0203 26.7772 12.7248C26.7793 11.9258 26.7806 11.1267 26.7812 10.3276C26.7816 9.77967 26.7826 9.23176 26.7842 8.68384C26.7851 8.3678 26.7855 8.05177 26.7854 7.73573C26.7853 7.39279 26.7863 7.04986 26.7876 6.70692C26.7873 6.60746 26.787 6.508 26.7867 6.40553C26.7932 5.37274 27.0233 4.52238 27.7397 3.74524C28.4517 3.09069 29.1245 2.8125 30.0937 2.8125Z" fill="#F8F8F8"/>
<path d="M30.7734 16.9864C31.1078 17.2068 31.3211 17.4548 31.4999 17.8125C31.5088 18.0275 31.5113 18.2428 31.5112 18.4579C31.5113 18.5251 31.5114 18.5922 31.5114 18.6614C31.5116 18.8876 31.5111 19.1137 31.5106 19.3399C31.5105 19.5015 31.5105 19.6632 31.5106 19.8248C31.5106 20.2647 31.5101 20.7046 31.5094 21.1444C31.5088 21.6038 31.5088 22.0631 31.5087 22.5224C31.5084 23.3926 31.5076 24.2629 31.5067 25.1331C31.5056 26.1236 31.5051 27.1142 31.5046 28.1047C31.5037 30.1427 31.502 32.1808 31.4999 34.2188C31.5731 34.2321 31.6462 34.2453 31.7215 34.259C32.4431 34.4152 33.1154 35.0613 33.5624 35.625C34.2413 36.7556 34.5042 37.9198 34.2513 39.2209C33.9157 40.3342 33.1963 41.262 32.1983 41.8627C31.1502 42.4082 30.0573 42.5452 28.8984 42.2754C28.3286 42.0948 27.8522 41.7923 27.3749 41.4375C27.3141 41.3927 27.2533 41.3479 27.1907 41.3017C26.7817 40.9483 26.551 40.506 26.3085 40.0313C26.276 39.9678 26.2436 39.9044 26.2101 39.839C25.7647 38.9189 25.7275 37.8008 26.0214 36.8262C26.4535 35.6795 27.2997 34.7499 28.4062 34.2188C28.499 34.2188 28.5918 34.2188 28.6874 34.2188C28.6871 34.1353 28.6867 34.0518 28.6864 33.9659C28.6781 31.9346 28.6719 29.9034 28.668 27.8721C28.6661 26.8898 28.6634 25.9075 28.6591 24.9252C28.6554 24.069 28.653 23.2128 28.6521 22.3566C28.6516 21.9033 28.6505 21.45 28.6478 20.9967C28.6452 20.5698 28.6444 20.143 28.645 19.7162C28.6449 19.5597 28.6442 19.4032 28.6427 19.2467C28.6408 19.0326 28.6413 18.8186 28.6423 18.6045C28.642 18.4848 28.6416 18.3651 28.6413 18.2418C28.7041 17.7851 28.8754 17.4276 29.2162 17.1039C29.7506 16.8121 30.187 16.7721 30.7734 16.9864Z" fill="#FE405C"/>
<path d="M13.7813 16.875C14.2137 17.0798 14.4135 17.2961 14.6251 17.7188C14.6612 17.9917 14.6612 17.9917 14.6625 18.2983C14.6636 18.4149 14.6648 18.5315 14.666 18.6517C14.6659 18.7801 14.6658 18.9086 14.6656 19.0371C14.6665 19.1729 14.6674 19.3088 14.6685 19.4446C14.6711 19.8128 14.672 20.181 14.6725 20.5491C14.6734 20.9341 14.6759 21.3191 14.6782 21.7041C14.6822 22.4329 14.6849 23.1617 14.6871 23.8905C14.6896 24.7203 14.6937 25.5501 14.698 26.3799C14.7067 28.0866 14.7134 29.7933 14.7188 31.5C14.8014 31.4153 14.8839 31.3306 14.969 31.2433C15.0789 31.1316 15.1889 31.0199 15.2989 30.9082C15.3531 30.8525 15.4073 30.7967 15.4632 30.7392C16.1573 30.0372 16.1573 30.0372 16.6784 29.9594C17.2548 29.9586 17.6544 29.9582 18.0938 30.375C18.3375 30.7187 18.4195 30.968 18.4278 31.3887C18.4338 31.5259 18.4338 31.5259 18.4399 31.6659C18.2758 32.4328 17.5315 33.0276 16.9948 33.5614C16.9177 33.6388 16.8405 33.7161 16.761 33.7958C16.5988 33.9581 16.4364 34.1201 16.2738 34.282C16.0252 34.5296 15.7777 34.7781 15.5302 35.0268C15.372 35.1849 15.2137 35.3429 15.0554 35.5009C14.9816 35.575 14.9079 35.6491 14.8319 35.7255C14.7624 35.7944 14.693 35.8633 14.6214 35.9342C14.5306 36.0248 14.5306 36.0248 14.4379 36.1173C14.0547 36.4519 13.7468 36.6052 13.2364 36.6153C13.0992 36.6212 13.0992 36.6212 12.9592 36.6273C12.1923 36.4632 11.5975 35.7189 11.0637 35.1823C10.9863 35.1051 10.909 35.0279 10.8293 34.9484C10.667 34.7863 10.505 34.6239 10.3431 34.4613C10.0956 34.2127 9.84698 33.9651 9.59829 33.7176C9.44021 33.5594 9.28219 33.4012 9.12423 33.2428C9.05011 33.1691 8.97599 33.0953 8.89962 33.0194C8.83074 32.9499 8.76186 32.8804 8.69089 32.8088C8.63049 32.7483 8.57008 32.6877 8.50785 32.6254C8.07551 32.1303 8.01225 31.757 8.02962 31.114C8.07426 30.7481 8.18475 30.5478 8.43758 30.2813C8.94917 29.9186 9.42236 29.9053 10.0313 30C10.5303 30.2252 10.892 30.6705 11.2728 31.0525C11.3565 31.1365 11.4403 31.2204 11.5265 31.3069C11.59 31.3706 11.6534 31.4344 11.7188 31.5C11.719 31.4295 11.7191 31.359 11.7192 31.2864C11.7227 29.5704 11.7283 27.8545 11.7361 26.1386C11.7398 25.3088 11.7428 24.479 11.7442 23.6492C11.7455 22.9259 11.748 22.2026 11.7521 21.4793C11.7542 21.0964 11.7557 20.7134 11.7556 20.3305C11.7555 19.9699 11.7572 19.6093 11.7602 19.2487C11.761 19.1166 11.7612 18.9844 11.7606 18.8522C11.7563 17.611 11.7563 17.611 12.1876 17.1563C12.6772 16.776 13.1863 16.8025 13.7813 16.875Z" fill="#7D81E7"/>
<path d="M7.57605 5.57227C7.66753 5.56828 7.75902 5.56429 7.85327 5.56018C8.62015 5.72431 9.21493 6.46863 9.74878 7.00525C9.82612 7.08241 9.90347 7.15958 9.98316 7.23908C10.1454 7.40124 10.3075 7.56364 10.4693 7.72625C10.7169 7.97484 10.9655 8.22242 11.2142 8.46991C11.3723 8.62811 11.5303 8.78638 11.6882 8.9447C11.7624 9.01844 11.8365 9.09218 11.9128 9.16816C11.9817 9.23763 12.0506 9.30711 12.1216 9.37868C12.182 9.43923 12.2424 9.49978 12.3046 9.56217C12.737 10.0573 12.8002 10.4305 12.7828 11.0735C12.7382 11.4395 12.6277 11.6397 12.3749 11.9062C11.8633 12.2689 11.3901 12.2822 10.7811 12.1875C10.2821 11.9623 9.92049 11.5171 9.53967 11.135C9.45594 11.0511 9.37221 10.9671 9.28593 10.8806C9.22247 10.8169 9.15901 10.7532 9.09363 10.6875C9.09349 10.758 9.09335 10.8285 9.09321 10.9012C9.08974 12.6171 9.08421 14.333 9.07639 16.0489C9.07266 16.8787 9.06962 17.7085 9.06822 18.5383C9.067 19.2616 9.06448 19.9849 9.06038 20.7082C9.05826 21.0912 9.05679 21.4741 9.05689 21.857C9.05696 22.2176 9.05528 22.5782 9.05227 22.9388C9.05147 23.071 9.05131 23.2032 9.05183 23.3354C9.05611 24.5766 9.05611 24.5766 8.62488 25.0312C8.13526 25.4115 7.62612 25.3851 7.03113 25.3125C6.5988 25.1077 6.39899 24.8915 6.18738 24.4688C6.15131 24.1958 6.15131 24.1958 6.15 23.8892C6.14882 23.7726 6.14765 23.656 6.14644 23.5359C6.14655 23.4074 6.14668 23.2789 6.14684 23.1505C6.146 23.0146 6.14503 22.8788 6.14395 22.7429C6.14136 22.3747 6.14049 22.0066 6.13993 21.6384C6.13905 21.2534 6.13659 20.8684 6.1343 20.4834C6.13021 19.7546 6.12753 19.0258 6.12537 18.2971C6.12283 17.4673 6.11872 16.6375 6.11447 15.8077C6.10576 14.1009 6.09904 12.3942 6.09363 10.6875C6.01109 10.7722 5.92855 10.8569 5.84351 10.9442C5.73355 11.0559 5.62356 11.1676 5.51355 11.2793C5.45935 11.3351 5.40515 11.3908 5.3493 11.4483C4.65515 12.1503 4.65515 12.1503 4.13403 12.2281C3.55762 12.2289 3.15802 12.2294 2.71863 11.8125C2.47497 11.4688 2.39291 11.2195 2.38464 10.7988C2.38066 10.7073 2.37667 10.6159 2.37256 10.5216C2.53669 9.75473 3.28101 9.15995 3.81763 8.6261C3.89479 8.54875 3.97196 8.47141 4.05146 8.39172C4.21362 8.22943 4.37601 8.06738 4.53863 7.90556C4.78722 7.65797 5.0348 7.40939 5.28229 7.16071C5.44049 7.00263 5.59875 6.8446 5.75708 6.68665C5.83082 6.61252 5.90456 6.5384 5.98054 6.46204C6.05001 6.39315 6.11948 6.32427 6.19106 6.2533C6.25161 6.1929 6.31216 6.1325 6.37455 6.07027C6.75777 5.73562 7.06564 5.5823 7.57605 5.57227Z" fill="#FF405B"/>
<path d="M30.0937 16.875C30.0937 25.29 30.0937 33.705 30.0937 42.375C29.003 42.375 28.2483 42.0867 27.3749 41.4375C27.3141 41.3927 27.2533 41.3478 27.1907 41.3016C26.7817 40.9483 26.551 40.506 26.3085 40.0312C26.276 39.9678 26.2436 39.9044 26.2101 39.839C25.7647 38.9189 25.7275 37.8007 26.0214 36.8262C26.4535 35.6795 27.2997 34.7499 28.4062 34.2188C28.499 34.2188 28.5918 34.2188 28.6874 34.2188C28.6871 34.1353 28.6867 34.0518 28.6864 33.9658C28.6781 31.9346 28.6719 29.9033 28.668 27.8721C28.6661 26.8898 28.6634 25.9075 28.6591 24.9252C28.6554 24.069 28.653 23.2128 28.6521 22.3566C28.6516 21.9033 28.6505 21.45 28.6478 20.9966C28.6452 20.5698 28.6444 20.143 28.645 19.7162C28.6449 19.5597 28.6442 19.4032 28.6427 19.2467C28.6408 19.0326 28.6413 18.8186 28.6423 18.6045C28.642 18.4848 28.6416 18.3651 28.6413 18.2418C28.7043 17.7837 28.8732 17.4155 29.2294 17.1039C29.5499 16.94 29.7267 16.875 30.0937 16.875Z" fill="#FE7D47"/>
<path d="M13.2188 16.875C13.2188 23.3719 13.2188 29.8687 13.2188 36.5625C12.328 36.5625 11.8953 36.0098 11.2854 35.4051C11.2122 35.3316 11.1391 35.258 11.0637 35.1822C10.9863 35.1051 10.909 35.0279 10.8293 34.9484C10.667 34.7863 10.505 34.6239 10.3431 34.4612C10.0956 34.2127 9.84698 33.9651 9.59829 33.7176C9.44021 33.5594 9.28219 33.4011 9.12423 33.2428C9.05011 33.1691 8.97599 33.0953 8.89962 33.0193C8.83074 32.9499 8.76186 32.8804 8.69089 32.8088C8.63049 32.7483 8.57008 32.6877 8.50785 32.6253C8.07551 32.1302 8.01225 31.757 8.02962 31.114C8.07426 30.748 8.18475 30.5477 8.43758 30.2812C8.94917 29.9186 9.42236 29.9053 10.0313 30C10.5303 30.2252 10.892 30.6704 11.2728 31.0525C11.3565 31.1364 11.4403 31.2204 11.5265 31.3069C11.59 31.3706 11.6534 31.4343 11.7188 31.5C11.719 31.4295 11.7191 31.359 11.7192 31.2863C11.7227 29.5704 11.7283 27.8545 11.7361 26.1386C11.7398 25.3088 11.7428 24.479 11.7442 23.6492C11.7455 22.9259 11.748 22.2026 11.7521 21.4793C11.7542 21.0963 11.7557 20.7134 11.7556 20.3305C11.7555 19.9699 11.7572 19.6093 11.7602 19.2487C11.761 19.1165 11.7612 18.9843 11.7606 18.8521C11.7563 17.6113 11.7563 17.6113 12.1876 17.1562C12.5737 16.8514 12.6871 16.875 13.2188 16.875Z" fill="#8BB9FF"/>
<path d="M7.59363 5.625C7.59363 12.1219 7.59363 18.6187 7.59363 25.3125C7.01141 25.3125 6.89569 25.2886 6.46863 24.9375C6.20735 24.5801 6.15187 24.3286 6.15 23.8892C6.14882 23.7726 6.14765 23.656 6.14644 23.5359C6.14655 23.4074 6.14668 23.2789 6.14684 23.1505C6.146 23.0146 6.14503 22.8788 6.14395 22.7429C6.14136 22.3747 6.14049 22.0066 6.13993 21.6384C6.13905 21.2534 6.13659 20.8684 6.1343 20.4834C6.13021 19.7546 6.12753 19.0258 6.12537 18.2971C6.12283 17.4673 6.11872 16.6375 6.11447 15.8077C6.10576 14.1009 6.09904 12.3942 6.09363 10.6875C6.01109 10.7722 5.92855 10.8569 5.84351 10.9442C5.73355 11.0559 5.62356 11.1676 5.51355 11.2793C5.45935 11.3351 5.40515 11.3908 5.3493 11.4483C4.65515 12.1503 4.65515 12.1503 4.13403 12.2281C3.55762 12.2289 3.15802 12.2294 2.71863 11.8125C2.47497 11.4688 2.39291 11.2195 2.38464 10.7988C2.38066 10.7073 2.37667 10.6159 2.37256 10.5216C2.53669 9.75473 3.28101 9.15995 3.81763 8.6261C3.89479 8.54875 3.97196 8.47141 4.05146 8.39172C4.21362 8.22943 4.37601 8.06738 4.53863 7.90556C4.78722 7.65797 5.0348 7.40939 5.28229 7.16071C5.44049 7.00263 5.59875 6.8446 5.75708 6.68665C5.83082 6.61252 5.90456 6.5384 5.98054 6.46204C6.05001 6.39315 6.11948 6.32427 6.19106 6.2533C6.25161 6.1929 6.31216 6.1325 6.37455 6.07027C6.80967 5.69031 6.9891 5.625 7.59363 5.625Z" fill="#FF7C46"/>
<path d="M41.6685 28.0844C41.7539 28.0839 41.8393 28.0834 41.9273 28.0829C42.1075 28.0823 42.2877 28.0824 42.4679 28.0832C42.7428 28.084 43.0176 28.0813 43.2924 28.0783C43.4679 28.0782 43.6434 28.0782 43.8189 28.0785C43.9006 28.0775 43.9824 28.0764 44.0666 28.0753C44.5796 28.0812 44.8747 28.1578 45.2812 28.5C45.6614 28.9896 45.635 29.4988 45.5624 30.0938C45.3587 30.5238 45.1464 30.738 44.7187 30.9375C44.4228 30.9793 44.1298 30.9792 43.8313 30.9782C43.7459 30.9787 43.6605 30.9791 43.5725 30.9797C43.3923 30.9803 43.2121 30.9801 43.0319 30.9793C42.757 30.9785 42.4823 30.9812 42.2074 30.9842C42.0319 30.9844 41.8564 30.9843 41.6809 30.984C41.5992 30.9851 41.5174 30.9861 41.4332 30.9872C40.9203 30.9814 40.6252 30.9047 40.2187 30.5625C39.8384 30.0729 39.8648 29.5638 39.9374 28.9688C40.316 28.1696 40.8597 28.0817 41.6685 28.0844Z" fill="#453C81"/>
<path d="M41.6685 16.8344C41.7539 16.8339 41.8393 16.8334 41.9273 16.8329C42.1075 16.8323 42.2877 16.8324 42.4679 16.8332C42.7428 16.834 43.0176 16.8313 43.2924 16.8283C43.4679 16.8282 43.6434 16.8282 43.8189 16.8285C43.9006 16.8275 43.9824 16.8264 44.0666 16.8253C44.5796 16.8312 44.8747 16.9078 45.2812 17.25C45.6614 17.7396 45.635 18.2488 45.5624 18.8438C45.3587 19.2738 45.1464 19.488 44.7187 19.6875C44.4228 19.7293 44.1298 19.7292 43.8313 19.7282C43.7459 19.7287 43.6605 19.7291 43.5725 19.7297C43.3923 19.7303 43.2121 19.7301 43.0319 19.7293C42.757 19.7285 42.4823 19.7312 42.2074 19.7342C42.0319 19.7344 41.8564 19.7343 41.6809 19.734C41.5992 19.7351 41.5174 19.7361 41.4332 19.7372C40.9203 19.7314 40.6252 19.6547 40.2187 19.3125C39.8384 18.8229 39.8648 18.3138 39.9374 17.7188C40.316 16.9196 40.8597 16.8317 41.6685 16.8344Z" fill="#453C81"/>
<path d="M41.6685 5.58434C41.7539 5.58385 41.8393 5.58335 41.9273 5.58285C42.1075 5.58225 42.2877 5.58237 42.4679 5.58317C42.7428 5.58397 43.0176 5.58127 43.2924 5.5783C43.4679 5.57814 43.6434 5.5782 43.8189 5.57848C43.9006 5.57743 43.9824 5.57637 44.0666 5.57529C44.5796 5.58112 44.8747 5.65779 45.2812 5.99999C45.6614 6.48961 45.635 6.99874 45.5624 7.59374C45.3587 8.02378 45.1464 8.23794 44.7187 8.43749C44.4228 8.47924 44.1298 8.47914 43.8313 8.47814C43.7459 8.47863 43.6605 8.47912 43.5725 8.47963C43.3923 8.48023 43.2121 8.4801 43.0319 8.4793C42.757 8.47851 42.4823 8.4812 42.2074 8.48418C42.0319 8.48433 41.8564 8.48428 41.6809 8.484C41.5992 8.48505 41.5174 8.4861 41.4332 8.48719C40.9203 8.48135 40.6252 8.40469 40.2187 8.06249C39.8384 7.57287 39.8648 7.06373 39.9374 6.46874C40.316 5.66957 40.8597 5.58162 41.6685 5.58434Z" fill="#453C81"/>
<path d="M42.0409 22.459C42.1548 22.4571 42.2687 22.4552 42.3861 22.4533C43.4437 22.4539 43.4437 22.4539 43.8749 22.875C44.2552 23.3646 44.2287 23.8738 44.1562 24.4688C43.9513 24.9012 43.7351 25.1006 43.3124 25.3125C42.8941 25.3698 42.4744 25.356 42.0526 25.3535C41.9387 25.3554 41.8248 25.3573 41.7075 25.3592C40.6498 25.3586 40.6498 25.3586 40.2187 24.9375C39.8384 24.4479 39.8648 23.9387 39.9374 23.3438C40.3827 22.4038 41.1163 22.4536 42.0409 22.459Z" fill="#453C81"/>
<path d="M42.0409 11.209C42.1548 11.2071 42.2687 11.2052 42.3861 11.2033C43.4437 11.2039 43.4437 11.2039 43.8749 11.625C44.2552 12.1146 44.2287 12.6238 44.1562 13.2188C43.9513 13.6512 43.7351 13.8506 43.3124 14.0625C42.8941 14.1198 42.4744 14.106 42.0526 14.1035C41.9387 14.1054 41.8248 14.1073 41.7075 14.1092C40.6498 14.1086 40.6498 14.1086 40.2187 13.6875C39.8384 13.1979 39.8648 12.6887 39.9374 12.0938C40.3827 11.1538 41.1163 11.2036 42.0409 11.209Z" fill="#453C81"/>
</g>
<defs>
<clipPath id="clip0_115_17">
<rect width="48" height="48" fill="white"/>
</clipPath>
</defs>
</svg>
